<mxfile host="app.diagrams.net" modified="2024-06-24T10:08:54.290Z" agent="Mozilla/5.0 (Windows NT 10.0; Win64; x64) AppleWebKit/537.36 (KHTML, like Gecko) Chrome/126.0.0.0 Safari/537.36" etag="TH_RYZZoQnlWvhJBFiLW" version="24.6.2" type="github">
  <diagram name="Page-1" id="uHOV2unDq3uZV0j1iJmc">
    <mxGraphModel dx="1105" dy="568" grid="1" gridSize="10" guides="1" tooltips="1" connect="1" arrows="1" fold="1" page="1" pageScale="1" pageWidth="827" pageHeight="1169" math="0" shadow="0">
      <root>
        <mxCell id="0" />
        <mxCell id="1" parent="0" />
        <mxCell id="Q0RcyEQ_4CpZkvhOZ5JH-3" style="edgeStyle=orthogonalEdgeStyle;rounded=0;orthogonalLoop=1;jettySize=auto;html=1;exitX=0.5;exitY=1;exitDx=0;exitDy=0;" parent="1" source="Q0RcyEQ_4CpZkvhOZ5JH-1" edge="1">
          <mxGeometry relative="1" as="geometry">
            <mxPoint x="440" y="120" as="targetPoint" />
          </mxGeometry>
        </mxCell>
        <UserObject label="&lt;p style=&quot;text-indent:-18.0pt;mso-list:l0 level1 lfo1&quot; class=&quot;MsoListParagraph&quot;&gt;&lt;span style=&quot;font-size:12.0pt;line-height:107%;font-family:&amp;quot;Titillium Web&amp;quot;;&lt;br/&gt;mso-ansi-language:EN-US&quot;&gt;Applicant submits form to &lt;a href=&quot;mailto:FAIRmat@physik.hu-berlin.de&quot;&gt;FAIRmat@physik.hu-berlin.de&lt;/a&gt;&lt;/span&gt;&lt;/p&gt;" link="&#xa;&#xa;&#xa;&lt;p style=&quot;text-indent:-18.0pt;mso-list:l0 level1 lfo1&quot; class=&quot;MsoListParagraph&quot;&gt;&lt;span style=&quot;font-size:12.0pt;line-height:107%;font-family:&amp;quot;Titillium Web&amp;quot;;&#xa;mso-fareast-font-family:&amp;quot;Titillium Web&amp;quot;;mso-bidi-font-family:&amp;quot;Titillium Web&amp;quot;;&#xa;mso-ansi-language:EN-US&quot;&gt;&lt;span style=&quot;mso-list:Ignore&quot;&gt;1.&lt;span style=&quot;font:7.0pt &amp;quot;Times New Roman&amp;quot;&quot;&gt;&amp;nbsp;&amp;nbsp;&amp;nbsp;&amp;nbsp;&amp;nbsp; &lt;/span&gt;&lt;/span&gt;&lt;/span&gt;&lt;span style=&quot;font-size:12.0pt;line-height:107%;font-family:&amp;quot;Titillium Web&amp;quot;;&#xa;mso-ansi-language:EN-US&quot;&gt;Applicant submits form to &lt;a href=&quot;mailto:FAIRmat@physik.hu-berlin.de&quot;&gt;FAIRmat@physik.hu-berlin.de&lt;/a&gt;&lt;/span&gt;&lt;/p&gt;&#xa;&#xa;&#xa;&#xa;&#xa;&#xa;" id="Q0RcyEQ_4CpZkvhOZ5JH-1">
          <mxCell style="rounded=1;whiteSpace=wrap;html=1;fillColor=#1ba1e2;strokeColor=#006EAF;fontColor=#ffffff;" parent="1" vertex="1">
            <mxGeometry x="200" width="480" height="40" as="geometry" />
          </mxCell>
        </UserObject>
        <mxCell id="Q0RcyEQ_4CpZkvhOZ5JH-29" value="" style="edgeStyle=orthogonalEdgeStyle;rounded=0;orthogonalLoop=1;jettySize=auto;html=1;" parent="1" source="Q0RcyEQ_4CpZkvhOZ5JH-4" target="Q0RcyEQ_4CpZkvhOZ5JH-19" edge="1">
          <mxGeometry relative="1" as="geometry" />
        </mxCell>
        <mxCell id="Q0RcyEQ_4CpZkvhOZ5JH-4" value="&lt;p style=&quot;text-indent:-18.0pt;mso-list:l0 level1 lfo1&quot; class=&quot;MsoListParagraph&quot;&gt;&lt;span style=&quot;font-size:12.0pt;line-height:107%;font-family:&amp;quot;Titillium Web&amp;quot;;&lt;br/&gt;mso-ansi-language:EN-US&quot;&gt;Processing of forms&lt;/span&gt;&lt;/p&gt;" style="swimlane;whiteSpace=wrap;html=1;fillColor=#1ba1e2;fontColor=#ffffff;strokeColor=#006EAF;" parent="1" vertex="1">
          <mxGeometry x="80" y="130" width="720" height="520" as="geometry">
            <mxRectangle x="80" y="130" width="150" height="50" as="alternateBounds" />
          </mxGeometry>
        </mxCell>
        <mxCell id="Q0RcyEQ_4CpZkvhOZ5JH-9" value="" style="edgeStyle=orthogonalEdgeStyle;rounded=0;orthogonalLoop=1;jettySize=auto;html=1;" parent="Q0RcyEQ_4CpZkvhOZ5JH-4" source="Q0RcyEQ_4CpZkvhOZ5JH-7" target="Q0RcyEQ_4CpZkvhOZ5JH-8" edge="1">
          <mxGeometry relative="1" as="geometry" />
        </mxCell>
        <mxCell id="Q0RcyEQ_4CpZkvhOZ5JH-7" value="&lt;p style=&quot;margin-left:72.0pt;mso-add-space:auto;&lt;br/&gt;text-indent:-18.0pt;mso-list:l0 level2 lfo1&quot; class=&quot;MsoListParagraph&quot;&gt;&lt;span style=&quot;font-size:12.0pt;line-height:107%;font-family:&amp;quot;Titillium Web&amp;quot;;&lt;br/&gt;mso-fareast-font-family:&amp;quot;Titillium Web&amp;quot;;mso-bidi-font-family:&amp;quot;Titillium Web&amp;quot;;&lt;br/&gt;mso-ansi-language:EN-US&quot;&gt;a.&lt;span style=&quot;font-variant-numeric: normal; font-variant-east-asian: normal; font-variant-alternates: normal; font-kerning: auto; font-optical-sizing: auto; font-feature-settings: normal; font-variation-settings: normal; font-variant-position: normal; font-stretch: normal; font-size: 7pt; line-height: normal; font-family: &amp;quot;Times New Roman&amp;quot;;&quot;&gt;&amp;nbsp;&amp;nbsp;&amp;nbsp;&amp;nbsp;&amp;nbsp;&amp;nbsp; &lt;/span&gt;&lt;/span&gt;&lt;span style=&quot;font-size:12.0pt;line-height:107%;font-family:&amp;quot;Titillium Web&amp;quot;;&lt;br/&gt;mso-ansi-language:EN-US&quot;&gt;Acknowledge receipt of the request form (SR)&lt;/span&gt;&lt;/p&gt;" style="rounded=1;whiteSpace=wrap;html=1;align=left;fillColor=#d80073;strokeColor=#A50040;fontColor=#ffffff;" parent="Q0RcyEQ_4CpZkvhOZ5JH-4" vertex="1">
          <mxGeometry x="40" y="40" width="620" height="60" as="geometry" />
        </mxCell>
        <mxCell id="Q0RcyEQ_4CpZkvhOZ5JH-13" value="" style="edgeStyle=orthogonalEdgeStyle;rounded=0;orthogonalLoop=1;jettySize=auto;html=1;" parent="Q0RcyEQ_4CpZkvhOZ5JH-4" source="Q0RcyEQ_4CpZkvhOZ5JH-8" target="Q0RcyEQ_4CpZkvhOZ5JH-12" edge="1">
          <mxGeometry relative="1" as="geometry" />
        </mxCell>
        <mxCell id="Q0RcyEQ_4CpZkvhOZ5JH-8" value="&lt;p style=&quot;margin-left: 96px;&quot; class=&quot;MsoListParagraph&quot;&gt;&lt;span style=&quot;font-size:12.0pt;line-height:107%;font-family:&amp;quot;Titillium Web&amp;quot;;&lt;br/&gt;mso-ansi-language:EN-US&quot;&gt;Download the form to the shared &quot;Submitted&quot; folder (SR)&lt;/span&gt;&lt;/p&gt;" style="whiteSpace=wrap;html=1;align=left;rounded=1;" parent="Q0RcyEQ_4CpZkvhOZ5JH-4" vertex="1">
          <mxGeometry x="27.5" y="140" width="645" height="60" as="geometry" />
        </mxCell>
        <mxCell id="Q0RcyEQ_4CpZkvhOZ5JH-15" value="" style="edgeStyle=orthogonalEdgeStyle;rounded=0;orthogonalLoop=1;jettySize=auto;html=1;" parent="Q0RcyEQ_4CpZkvhOZ5JH-4" source="Q0RcyEQ_4CpZkvhOZ5JH-12" target="Q0RcyEQ_4CpZkvhOZ5JH-14" edge="1">
          <mxGeometry relative="1" as="geometry" />
        </mxCell>
        <mxCell id="Q0RcyEQ_4CpZkvhOZ5JH-12" value="&lt;p style=&quot;margin-left: 30px;&quot; class=&quot;MsoListParagraph&quot;&gt;&lt;span style=&quot;font-size:12.0pt;line-height:107%;font-family:&amp;quot;Titillium Web&amp;quot;;&lt;br/&gt;mso-ansi-language:EN-US&quot;&gt;Rename the event request according to the standard format: (Submission-date_Area_Applicant-Lastname_Eventname_Event-start-date_&quot;P_or_O&quot;) (JS)&lt;/span&gt;&lt;/p&gt;" style="whiteSpace=wrap;html=1;align=left;rounded=1;" parent="Q0RcyEQ_4CpZkvhOZ5JH-4" vertex="1">
          <mxGeometry x="50" y="240" width="600" height="60" as="geometry" />
        </mxCell>
        <mxCell id="Q0RcyEQ_4CpZkvhOZ5JH-17" value="" style="edgeStyle=orthogonalEdgeStyle;rounded=0;orthogonalLoop=1;jettySize=auto;html=1;" parent="Q0RcyEQ_4CpZkvhOZ5JH-4" source="Q0RcyEQ_4CpZkvhOZ5JH-14" target="Q0RcyEQ_4CpZkvhOZ5JH-16" edge="1">
          <mxGeometry relative="1" as="geometry" />
        </mxCell>
        <mxCell id="J26KxqHPL9ZNlSrWVG3T-2" value="" style="edgeStyle=orthogonalEdgeStyle;rounded=0;orthogonalLoop=1;jettySize=auto;html=1;" edge="1" parent="Q0RcyEQ_4CpZkvhOZ5JH-4" source="Q0RcyEQ_4CpZkvhOZ5JH-14" target="Q0RcyEQ_4CpZkvhOZ5JH-16">
          <mxGeometry relative="1" as="geometry" />
        </mxCell>
        <mxCell id="Q0RcyEQ_4CpZkvhOZ5JH-14" value="&lt;p style=&quot;margin-left: 30px;&quot; class=&quot;MsoListParagraph&quot;&gt;&lt;span style=&quot;font-size:12.0pt;line-height:107%;font-family:&amp;quot;Titillium Web&amp;quot;;&lt;br/&gt;mso-ansi-language:EN-US&quot;&gt;Transfer the information from each form into the overview Excel sheet (JS)&lt;/span&gt;&lt;/p&gt;" style="whiteSpace=wrap;html=1;align=left;rounded=1;" parent="Q0RcyEQ_4CpZkvhOZ5JH-4" vertex="1">
          <mxGeometry x="40" y="340" width="640" height="60" as="geometry" />
        </mxCell>
        <mxCell id="Q0RcyEQ_4CpZkvhOZ5JH-16" value="&lt;span style=&quot;font-size:12.0pt;line-height:107%;&lt;br/&gt;font-family:&amp;quot;Titillium Web&amp;quot;;mso-fareast-font-family:Calibri;mso-fareast-theme-font:&lt;br/&gt;minor-latin;mso-bidi-font-family:&amp;quot;Times New Roman&amp;quot;;mso-bidi-theme-font:minor-bidi;&lt;br/&gt;mso-ansi-language:EN-US;mso-fareast-language:EN-US;mso-bidi-language:AR-SA&quot;&gt;&lt;font data-font-src=&quot;https://fonts.googleapis.com/css?family=titillium+web&quot; face=&quot;titillium web&quot;&gt;Present the summary of the requests in the meeting (SR)&lt;/font&gt;&lt;/span&gt;" style="whiteSpace=wrap;html=1;align=left;rounded=1;" parent="Q0RcyEQ_4CpZkvhOZ5JH-4" vertex="1">
          <mxGeometry x="40" y="440" width="620" height="60" as="geometry" />
        </mxCell>
        <mxCell id="J26KxqHPL9ZNlSrWVG3T-15" value="" style="edgeStyle=orthogonalEdgeStyle;rounded=0;orthogonalLoop=1;jettySize=auto;html=1;" edge="1" parent="1" source="Q0RcyEQ_4CpZkvhOZ5JH-19" target="J26KxqHPL9ZNlSrWVG3T-3">
          <mxGeometry relative="1" as="geometry" />
        </mxCell>
        <mxCell id="Q0RcyEQ_4CpZkvhOZ5JH-19" value="&lt;p style=&quot;text-indent:-18.0pt;mso-list:l0 level1 lfo1&quot; class=&quot;MsoListParagraph&quot;&gt;&lt;span style=&quot;font-size:12.0pt;line-height:107%;font-family:&amp;quot;Titillium Web&amp;quot;;&lt;br/&gt;mso-ansi-language:EN-US&quot;&gt;Initial assessment&lt;/span&gt;&lt;/p&gt;" style="swimlane;whiteSpace=wrap;html=1;fillColor=#1ba1e2;fontColor=#ffffff;strokeColor=#006EAF;" parent="1" vertex="1">
          <mxGeometry x="80" y="730" width="720" height="410" as="geometry">
            <mxRectangle x="80" y="130" width="150" height="50" as="alternateBounds" />
          </mxGeometry>
        </mxCell>
        <mxCell id="Q0RcyEQ_4CpZkvhOZ5JH-20" value="" style="edgeStyle=orthogonalEdgeStyle;rounded=0;orthogonalLoop=1;jettySize=auto;html=1;" parent="Q0RcyEQ_4CpZkvhOZ5JH-19" source="Q0RcyEQ_4CpZkvhOZ5JH-21" target="Q0RcyEQ_4CpZkvhOZ5JH-23" edge="1">
          <mxGeometry relative="1" as="geometry" />
        </mxCell>
        <mxCell id="Q0RcyEQ_4CpZkvhOZ5JH-21" value="&lt;p style=&quot;margin: 0cm 0px 0cm 30px; text-indent: -18pt;&quot;&gt;&lt;span style=&quot;text-indent: -18pt; background-color: initial; color: black; font-family: &amp;quot;Titillium Web&amp;quot;;&quot;&gt;Verify that participation in the event aligns with FAIRmat&#39;s mission and current strategy &lt;/span&gt;&lt;i style=&quot;text-indent: -18pt; background-color: initial; color: black; font-family: &amp;quot;Titillium Web&amp;quot;;&quot;&gt;(&lt;b&gt;Area F&lt;/b&gt;)&lt;/i&gt;&lt;br&gt;&lt;/p&gt;" style="rounded=1;whiteSpace=wrap;html=1;align=center;" parent="Q0RcyEQ_4CpZkvhOZ5JH-19" vertex="1">
          <mxGeometry x="40" y="140" width="280" height="60" as="geometry" />
        </mxCell>
        <mxCell id="Q0RcyEQ_4CpZkvhOZ5JH-22" value="" style="edgeStyle=orthogonalEdgeStyle;rounded=0;orthogonalLoop=1;jettySize=auto;html=1;entryX=0.5;entryY=0;entryDx=0;entryDy=0;" parent="Q0RcyEQ_4CpZkvhOZ5JH-19" source="Q0RcyEQ_4CpZkvhOZ5JH-23" edge="1" target="Q0RcyEQ_4CpZkvhOZ5JH-25">
          <mxGeometry relative="1" as="geometry">
            <mxPoint x="350" y="343" as="targetPoint" />
          </mxGeometry>
        </mxCell>
        <mxCell id="Q0RcyEQ_4CpZkvhOZ5JH-23" value="&lt;p style=&quot;margin: 0cm 0cm 0cm 30px; text-indent: -18pt;&quot;&gt;&lt;span style=&quot;font-family: &amp;quot;Titillium Web&amp;quot;;&quot;&gt;Ensure the event does not conflict in time or location with other FAIRmat events&amp;nbsp;&lt;/span&gt;&lt;/p&gt;" style="whiteSpace=wrap;html=1;align=left;rounded=1;" parent="Q0RcyEQ_4CpZkvhOZ5JH-19" vertex="1">
          <mxGeometry x="40" y="230" width="280" height="60" as="geometry" />
        </mxCell>
        <mxCell id="Q0RcyEQ_4CpZkvhOZ5JH-25" value="&lt;p style=&quot;margin: 0cm 0cm 0px 30px; text-indent: -18pt;&quot;&gt;&lt;span style=&quot;font-family: &amp;quot;Titillium Web&amp;quot;;&quot;&gt;Clarify Area F role in the event organization, and evaluate the capacity to support the organizations.&amp;nbsp;&lt;/span&gt;&lt;/p&gt;" style="whiteSpace=wrap;html=1;align=left;rounded=1;" parent="Q0RcyEQ_4CpZkvhOZ5JH-19" vertex="1">
          <mxGeometry x="40" y="330" width="280" height="60" as="geometry" />
        </mxCell>
        <mxCell id="Q0RcyEQ_4CpZkvhOZ5JH-27" value="&lt;p style=&quot;margin: 0cm 0cm 0cm 30px; text-indent: -18pt;&quot;&gt;&lt;span style=&quot;font-family: &amp;quot;Titillium Web&amp;quot;;&quot;&gt;Confirm that the budget to cover event costs is available and can be allocated&lt;i&gt;&lt;b&gt;&lt;br&gt;&lt;/b&gt;&lt;/i&gt;&lt;/span&gt;&lt;/p&gt;" style="whiteSpace=wrap;html=1;align=left;rounded=1;" parent="Q0RcyEQ_4CpZkvhOZ5JH-19" vertex="1">
          <mxGeometry x="400" y="140" width="280" height="60" as="geometry" />
        </mxCell>
        <mxCell id="Q0RcyEQ_4CpZkvhOZ5JH-28" value="&lt;p style=&quot;margin: 0cm 0cm 0cm 30px; text-indent: -18pt;&quot;&gt;&lt;span style=&quot;font-family: &amp;quot;Titillium Web&amp;quot;;&quot;&gt;Ensure the requested budget complies with HU guidelines &lt;i&gt;(&lt;b&gt;Area G&lt;/b&gt;)&lt;/i&gt;&lt;/span&gt;&lt;/p&gt;" style="whiteSpace=wrap;html=1;align=left;rounded=1;" parent="Q0RcyEQ_4CpZkvhOZ5JH-19" vertex="1">
          <mxGeometry x="400" y="230" width="280" height="60" as="geometry" />
        </mxCell>
        <mxCell id="Q0RcyEQ_4CpZkvhOZ5JH-35" style="edgeStyle=orthogonalEdgeStyle;rounded=0;orthogonalLoop=1;jettySize=auto;html=1;exitX=0.5;exitY=1;exitDx=0;exitDy=0;entryX=0.5;entryY=0;entryDx=0;entryDy=0;" parent="Q0RcyEQ_4CpZkvhOZ5JH-19" source="Q0RcyEQ_4CpZkvhOZ5JH-31" target="Q0RcyEQ_4CpZkvhOZ5JH-21" edge="1">
          <mxGeometry relative="1" as="geometry" />
        </mxCell>
        <mxCell id="Q0RcyEQ_4CpZkvhOZ5JH-31" value="&lt;font data-font-src=&quot;https://fonts.googleapis.com/css?family=titillium+web&quot; face=&quot;titillium web&quot;&gt;Area F&lt;/font&gt;" style="shape=hexagon;perimeter=hexagonPerimeter2;whiteSpace=wrap;html=1;fixedSize=1;fillColor=#e1d5e7;strokeColor=#9673a6;" parent="Q0RcyEQ_4CpZkvhOZ5JH-19" vertex="1">
          <mxGeometry x="120" y="50" width="120" height="50" as="geometry" />
        </mxCell>
        <mxCell id="J26KxqHPL9ZNlSrWVG3T-1" value="" style="edgeStyle=orthogonalEdgeStyle;rounded=0;orthogonalLoop=1;jettySize=auto;html=1;" edge="1" parent="Q0RcyEQ_4CpZkvhOZ5JH-19" source="Q0RcyEQ_4CpZkvhOZ5JH-33" target="Q0RcyEQ_4CpZkvhOZ5JH-27">
          <mxGeometry relative="1" as="geometry" />
        </mxCell>
        <mxCell id="Q0RcyEQ_4CpZkvhOZ5JH-33" value="&lt;font data-font-src=&quot;https://fonts.googleapis.com/css?family=titillium+web&quot; face=&quot;titillium web&quot;&gt;Area G&lt;/font&gt;" style="shape=hexagon;perimeter=hexagonPerimeter2;whiteSpace=wrap;html=1;fixedSize=1;fillColor=#f8cecc;strokeColor=#b85450;" parent="Q0RcyEQ_4CpZkvhOZ5JH-19" vertex="1">
          <mxGeometry x="480" y="50" width="120" height="50" as="geometry" />
        </mxCell>
        <mxCell id="J26KxqHPL9ZNlSrWVG3T-50" value="" style="edgeStyle=orthogonalEdgeStyle;rounded=0;orthogonalLoop=1;jettySize=auto;html=1;" edge="1" parent="1" source="J26KxqHPL9ZNlSrWVG3T-3" target="J26KxqHPL9ZNlSrWVG3T-37">
          <mxGeometry relative="1" as="geometry" />
        </mxCell>
        <mxCell id="J26KxqHPL9ZNlSrWVG3T-3" value="&lt;p style=&quot;text-indent:-18.0pt;mso-list:l0 level1 lfo1&quot; class=&quot;MsoListParagraph&quot;&gt;&lt;span style=&quot;font-size:12.0pt;line-height:107%;font-family:&amp;quot;Titillium Web&amp;quot;;&lt;br/&gt;mso-ansi-language:EN-US&quot;&gt;Make decisoin&lt;/span&gt;&lt;/p&gt;" style="swimlane;whiteSpace=wrap;html=1;fillColor=#1ba1e2;fontColor=#ffffff;strokeColor=#006EAF;" vertex="1" parent="1">
          <mxGeometry x="80" y="1220" width="720" height="470" as="geometry">
            <mxRectangle x="80" y="130" width="150" height="50" as="alternateBounds" />
          </mxGeometry>
        </mxCell>
        <mxCell id="J26KxqHPL9ZNlSrWVG3T-32" value="" style="edgeStyle=orthogonalEdgeStyle;rounded=0;orthogonalLoop=1;jettySize=auto;html=1;" edge="1" parent="J26KxqHPL9ZNlSrWVG3T-3" source="J26KxqHPL9ZNlSrWVG3T-10" target="J26KxqHPL9ZNlSrWVG3T-30">
          <mxGeometry relative="1" as="geometry" />
        </mxCell>
        <mxCell id="J26KxqHPL9ZNlSrWVG3T-10" value="&lt;p style=&quot;margin-left: 30px; text-indent: -18pt;&quot;&gt;&lt;span style=&quot;font-family: &amp;quot;Titillium Web&amp;quot;;&quot;&gt;Present summary and budget to Claudia for approval (VC)&lt;/span&gt;&lt;/p&gt;" style="whiteSpace=wrap;html=1;align=left;rounded=1;" vertex="1" parent="J26KxqHPL9ZNlSrWVG3T-3">
          <mxGeometry x="360" y="200" width="240" height="60" as="geometry" />
        </mxCell>
        <mxCell id="J26KxqHPL9ZNlSrWVG3T-16" value="&lt;span style=&quot;color: rgb(0, 0, 0); font-family: &amp;quot;Titillium Web&amp;quot;; font-style: normal; font-variant-ligatures: normal; font-variant-caps: normal; font-weight: 400; letter-spacing: normal; orphans: 2; text-align: center; text-indent: -24px; text-transform: none; widows: 2; word-spacing: 0px; -webkit-text-stroke-width: 0px; white-space: normal; background-color: rgb(251, 251, 251); text-decoration-thickness: initial; text-decoration-style: initial; text-decoration-color: initial; float: none; display: inline !important;&quot;&gt;&lt;font style=&quot;font-size: 16px;&quot;&gt;Events in Germany with reasonable requested costs&lt;/font&gt;&lt;/span&gt;" style="rhombus;whiteSpace=wrap;html=1;" vertex="1" parent="J26KxqHPL9ZNlSrWVG3T-3">
          <mxGeometry x="60" y="40" width="560" height="100" as="geometry" />
        </mxCell>
        <mxCell id="J26KxqHPL9ZNlSrWVG3T-33" value="" style="edgeStyle=orthogonalEdgeStyle;rounded=0;orthogonalLoop=1;jettySize=auto;html=1;" edge="1" parent="J26KxqHPL9ZNlSrWVG3T-3" source="J26KxqHPL9ZNlSrWVG3T-5" target="J26KxqHPL9ZNlSrWVG3T-30">
          <mxGeometry relative="1" as="geometry" />
        </mxCell>
        <mxCell id="J26KxqHPL9ZNlSrWVG3T-5" value="&lt;p style=&quot;margin-left: 30px; text-indent: -18pt;&quot;&gt;&lt;span style=&quot;font-family: &amp;quot;Titillium Web&amp;quot;;&quot;&gt;Decisions to be made by AM and VC.&lt;/span&gt;&lt;/p&gt;" style="rounded=1;whiteSpace=wrap;html=1;align=center;" vertex="1" parent="J26KxqHPL9ZNlSrWVG3T-3">
          <mxGeometry x="80" y="200" width="240" height="60" as="geometry" />
        </mxCell>
        <mxCell id="J26KxqHPL9ZNlSrWVG3T-18" value="" style="endArrow=classic;html=1;rounded=0;exitX=0.5;exitY=1;exitDx=0;exitDy=0;entryX=0.5;entryY=0;entryDx=0;entryDy=0;" edge="1" parent="J26KxqHPL9ZNlSrWVG3T-3" source="J26KxqHPL9ZNlSrWVG3T-16" target="J26KxqHPL9ZNlSrWVG3T-5">
          <mxGeometry relative="1" as="geometry">
            <mxPoint x="360" y="150" as="sourcePoint" />
            <mxPoint x="460" y="150" as="targetPoint" />
          </mxGeometry>
        </mxCell>
        <mxCell id="J26KxqHPL9ZNlSrWVG3T-19" value="&lt;b&gt;YES&lt;/b&gt;" style="edgeLabel;resizable=0;html=1;;align=center;verticalAlign=middle;" connectable="0" vertex="1" parent="J26KxqHPL9ZNlSrWVG3T-18">
          <mxGeometry relative="1" as="geometry" />
        </mxCell>
        <mxCell id="J26KxqHPL9ZNlSrWVG3T-35" value="" style="edgeStyle=orthogonalEdgeStyle;rounded=0;orthogonalLoop=1;jettySize=auto;html=1;" edge="1" parent="J26KxqHPL9ZNlSrWVG3T-3" source="J26KxqHPL9ZNlSrWVG3T-30" target="J26KxqHPL9ZNlSrWVG3T-34">
          <mxGeometry relative="1" as="geometry" />
        </mxCell>
        <mxCell id="J26KxqHPL9ZNlSrWVG3T-30" value="&lt;p style=&quot;margin-left: 30px; text-indent: -18pt;&quot;&gt;&lt;span style=&quot;font-family: &amp;quot;Titillium Web&amp;quot;;&quot;&gt;Inform the team of the decision via the Discord events (internal) channel (AM and VC)&lt;/span&gt;&lt;/p&gt;" style="rounded=1;whiteSpace=wrap;html=1;align=center;" vertex="1" parent="J26KxqHPL9ZNlSrWVG3T-3">
          <mxGeometry x="80" y="300" width="520" height="60" as="geometry" />
        </mxCell>
        <mxCell id="J26KxqHPL9ZNlSrWVG3T-34" value="&lt;p style=&quot;margin-left: 30px; text-indent: -18pt;&quot;&gt;&lt;span style=&quot;font-family: &amp;quot;Titillium Web&amp;quot;;&quot;&gt;Update the status on the overview sheet and move the file to the respective folder (JS)&lt;/span&gt;&lt;/p&gt;" style="rounded=1;whiteSpace=wrap;html=1;align=center;" vertex="1" parent="J26KxqHPL9ZNlSrWVG3T-3">
          <mxGeometry x="80" y="380" width="520" height="60" as="geometry" />
        </mxCell>
        <mxCell id="J26KxqHPL9ZNlSrWVG3T-26" value="" style="endArrow=classic;html=1;rounded=0;entryX=0.5;entryY=0;entryDx=0;entryDy=0;" edge="1" parent="J26KxqHPL9ZNlSrWVG3T-3" target="J26KxqHPL9ZNlSrWVG3T-10">
          <mxGeometry relative="1" as="geometry">
            <mxPoint x="340" y="140" as="sourcePoint" />
            <mxPoint x="470" y="100" as="targetPoint" />
          </mxGeometry>
        </mxCell>
        <mxCell id="J26KxqHPL9ZNlSrWVG3T-27" value="&lt;b&gt;NO&lt;/b&gt;" style="edgeLabel;resizable=0;html=1;;align=center;verticalAlign=middle;" connectable="0" vertex="1" parent="J26KxqHPL9ZNlSrWVG3T-26">
          <mxGeometry relative="1" as="geometry" />
        </mxCell>
        <mxCell id="J26KxqHPL9ZNlSrWVG3T-90" value="" style="edgeStyle=orthogonalEdgeStyle;rounded=0;orthogonalLoop=1;jettySize=auto;html=1;" edge="1" parent="1" source="J26KxqHPL9ZNlSrWVG3T-37" target="J26KxqHPL9ZNlSrWVG3T-73">
          <mxGeometry relative="1" as="geometry" />
        </mxCell>
        <mxCell id="J26KxqHPL9ZNlSrWVG3T-37" value="&lt;p style=&quot;text-indent:-18.0pt;mso-list:l0 level1 lfo1&quot; class=&quot;MsoListParagraph&quot;&gt;&lt;font face=&quot;Titillium Web&quot;&gt;&lt;span style=&quot;font-size: 16px;&quot;&gt;Infrom applicants and provide guideline documents and forms (SR)&lt;/span&gt;&lt;/font&gt;&lt;/p&gt;" style="swimlane;whiteSpace=wrap;html=1;fillColor=#1ba1e2;fontColor=#ffffff;strokeColor=#006EAF;" vertex="1" parent="1">
          <mxGeometry x="80" y="1770" width="720" height="460" as="geometry">
            <mxRectangle x="80" y="130" width="150" height="50" as="alternateBounds" />
          </mxGeometry>
        </mxCell>
        <mxCell id="J26KxqHPL9ZNlSrWVG3T-61" value="" style="edgeStyle=orthogonalEdgeStyle;rounded=0;orthogonalLoop=1;jettySize=auto;html=1;" edge="1" parent="J26KxqHPL9ZNlSrWVG3T-37" source="J26KxqHPL9ZNlSrWVG3T-42" target="J26KxqHPL9ZNlSrWVG3T-60">
          <mxGeometry relative="1" as="geometry" />
        </mxCell>
        <mxCell id="J26KxqHPL9ZNlSrWVG3T-42" value="&lt;p style=&quot;margin-left:108.0pt;text-indent:-108.0pt;mso-text-indent-alt:-9.0pt;&lt;br/&gt;mso-list:l0 level3 lfo1&quot;&gt;&lt;span style=&quot;font-family: &amp;quot;Titillium Web&amp;quot;;&quot;&gt;Inform the applicant of the decision&lt;/span&gt;&lt;/p&gt;" style="rounded=1;whiteSpace=wrap;html=1;align=center;" vertex="1" parent="J26KxqHPL9ZNlSrWVG3T-37">
          <mxGeometry x="40" y="150" width="320" height="60" as="geometry" />
        </mxCell>
        <mxCell id="J26KxqHPL9ZNlSrWVG3T-58" value="&lt;b&gt;&lt;font data-font-src=&quot;https://fonts.googleapis.com/css?family=titillium+web&quot; face=&quot;titillium web&quot;&gt;Event participation&lt;/font&gt;&lt;/b&gt;" style="shape=hexagon;perimeter=hexagonPerimeter2;whiteSpace=wrap;html=1;fixedSize=1;" vertex="1" parent="J26KxqHPL9ZNlSrWVG3T-37">
          <mxGeometry x="120" y="70" width="160" height="60" as="geometry" />
        </mxCell>
        <mxCell id="J26KxqHPL9ZNlSrWVG3T-59" value="&lt;b&gt;&lt;font data-font-src=&quot;https://fonts.googleapis.com/css?family=titillium+web&quot; face=&quot;titillium web&quot;&gt;Event organization&lt;/font&gt;&lt;/b&gt;" style="shape=hexagon;perimeter=hexagonPerimeter2;whiteSpace=wrap;html=1;fixedSize=1;" vertex="1" parent="J26KxqHPL9ZNlSrWVG3T-37">
          <mxGeometry x="460" y="70" width="160" height="60" as="geometry" />
        </mxCell>
        <mxCell id="J26KxqHPL9ZNlSrWVG3T-63" value="" style="edgeStyle=orthogonalEdgeStyle;rounded=0;orthogonalLoop=1;jettySize=auto;html=1;" edge="1" parent="J26KxqHPL9ZNlSrWVG3T-37" source="J26KxqHPL9ZNlSrWVG3T-60" target="J26KxqHPL9ZNlSrWVG3T-62">
          <mxGeometry relative="1" as="geometry" />
        </mxCell>
        <mxCell id="J26KxqHPL9ZNlSrWVG3T-60" value="&lt;p style=&quot;text-align: left; margin-left: 144px; text-indent: -108pt;&quot;&gt;&lt;span style=&quot;font-family: &amp;quot;Titillium Web&amp;quot;;&quot;&gt;Send the DRA form and request it to be filled&lt;/span&gt;&lt;/p&gt;" style="whiteSpace=wrap;html=1;rounded=1;" vertex="1" parent="J26KxqHPL9ZNlSrWVG3T-37">
          <mxGeometry x="40" y="230" width="320" height="60" as="geometry" />
        </mxCell>
        <mxCell id="J26KxqHPL9ZNlSrWVG3T-62" value="&lt;p style=&quot;margin-left:108.0pt;text-indent:-108.0pt;mso-text-indent-alt:-9.0pt;&lt;br/&gt;mso-list:l0 level3 lfo1&quot;&gt;&lt;span style=&quot;font-family: &amp;quot;Titillium Web&amp;quot;;&quot;&gt;Send the DRA form and request it to be filled&lt;/span&gt;&lt;/p&gt;" style="whiteSpace=wrap;html=1;rounded=1;" vertex="1" parent="J26KxqHPL9ZNlSrWVG3T-37">
          <mxGeometry x="40" y="311" width="320" height="60" as="geometry" />
        </mxCell>
        <mxCell id="J26KxqHPL9ZNlSrWVG3T-64" value="" style="edgeStyle=orthogonalEdgeStyle;rounded=0;orthogonalLoop=1;jettySize=auto;html=1;" edge="1" parent="J26KxqHPL9ZNlSrWVG3T-37" source="J26KxqHPL9ZNlSrWVG3T-65" target="J26KxqHPL9ZNlSrWVG3T-67">
          <mxGeometry relative="1" as="geometry" />
        </mxCell>
        <mxCell id="J26KxqHPL9ZNlSrWVG3T-65" value="&lt;p style=&quot;margin-left:108.0pt;text-indent:-108.0pt;mso-text-indent-alt:-9.0pt;&lt;br/&gt;mso-list:l0 level3 lfo1&quot;&gt;&lt;span style=&quot;font-family: &amp;quot;Titillium Web&amp;quot;;&quot;&gt;Inform the organizer of the decision&lt;/span&gt;&lt;/p&gt;" style="rounded=1;whiteSpace=wrap;html=1;align=center;" vertex="1" parent="J26KxqHPL9ZNlSrWVG3T-37">
          <mxGeometry x="400" y="150" width="280" height="60" as="geometry" />
        </mxCell>
        <mxCell id="J26KxqHPL9ZNlSrWVG3T-66" value="" style="edgeStyle=orthogonalEdgeStyle;rounded=0;orthogonalLoop=1;jettySize=auto;html=1;" edge="1" parent="J26KxqHPL9ZNlSrWVG3T-37" source="J26KxqHPL9ZNlSrWVG3T-67" target="J26KxqHPL9ZNlSrWVG3T-68">
          <mxGeometry relative="1" as="geometry" />
        </mxCell>
        <mxCell id="J26KxqHPL9ZNlSrWVG3T-67" value="&lt;p style=&quot;margin-left: 108pt; text-indent: -108pt;&quot;&gt;&lt;span style=&quot;font-family: &amp;quot;Titillium Web&amp;quot;;&quot;&gt;Send HU hospitality guidelines (or link&lt;br/&gt;to documents) to the organizer&lt;/span&gt;&lt;/p&gt;" style="whiteSpace=wrap;html=1;rounded=1;" vertex="1" parent="J26KxqHPL9ZNlSrWVG3T-37">
          <mxGeometry x="400" y="230" width="280" height="60" as="geometry" />
        </mxCell>
        <mxCell id="J26KxqHPL9ZNlSrWVG3T-70" value="" style="edgeStyle=orthogonalEdgeStyle;rounded=0;orthogonalLoop=1;jettySize=auto;html=1;" edge="1" parent="J26KxqHPL9ZNlSrWVG3T-37" source="J26KxqHPL9ZNlSrWVG3T-68" target="J26KxqHPL9ZNlSrWVG3T-69">
          <mxGeometry relative="1" as="geometry" />
        </mxCell>
        <mxCell id="J26KxqHPL9ZNlSrWVG3T-68" value="&lt;p style=&quot;margin-left:108.0pt;text-indent:-108.0pt;mso-text-indent-alt:-9.0pt;&lt;br/&gt;mso-list:l0 level3 lfo1&quot;&gt;&lt;span style=&quot;font-family: &amp;quot;Titillium Web&amp;quot;;&quot;&gt;Send all FAIRmat participants the DRA bform and request it to be filled&lt;/span&gt;&lt;/p&gt;" style="whiteSpace=wrap;html=1;rounded=1;" vertex="1" parent="J26KxqHPL9ZNlSrWVG3T-37">
          <mxGeometry x="400" y="311" width="280" height="60" as="geometry" />
        </mxCell>
        <mxCell id="J26KxqHPL9ZNlSrWVG3T-69" value="&lt;p style=&quot;margin-left:108.0pt;text-indent:-108.0pt;mso-text-indent-alt:-9.0pt;&lt;br/&gt;mso-list:l0 level3 lfo1&quot;&gt;&lt;span style=&quot;font-family: &amp;quot;Titillium Web&amp;quot;;&quot;&gt;Send all FAIRmat participants HU travel guidelines (or link to documents)&lt;/span&gt;&lt;/p&gt;" style="whiteSpace=wrap;html=1;rounded=1;" vertex="1" parent="J26KxqHPL9ZNlSrWVG3T-37">
          <mxGeometry x="400" y="390" width="280" height="60" as="geometry" />
        </mxCell>
        <mxCell id="J26KxqHPL9ZNlSrWVG3T-71" value="" style="endArrow=classic;html=1;rounded=0;exitX=0.5;exitY=1;exitDx=0;exitDy=0;" edge="1" parent="J26KxqHPL9ZNlSrWVG3T-37" source="J26KxqHPL9ZNlSrWVG3T-58" target="J26KxqHPL9ZNlSrWVG3T-42">
          <mxGeometry width="50" height="50" relative="1" as="geometry">
            <mxPoint x="380" y="140" as="sourcePoint" />
            <mxPoint x="430" y="90" as="targetPoint" />
          </mxGeometry>
        </mxCell>
        <mxCell id="J26KxqHPL9ZNlSrWVG3T-72" value="" style="endArrow=classic;html=1;rounded=0;exitX=0.5;exitY=1;exitDx=0;exitDy=0;entryX=0.5;entryY=0;entryDx=0;entryDy=0;" edge="1" parent="J26KxqHPL9ZNlSrWVG3T-37" source="J26KxqHPL9ZNlSrWVG3T-59" target="J26KxqHPL9ZNlSrWVG3T-65">
          <mxGeometry width="50" height="50" relative="1" as="geometry">
            <mxPoint x="380" y="140" as="sourcePoint" />
            <mxPoint x="430" y="90" as="targetPoint" />
          </mxGeometry>
        </mxCell>
        <mxCell id="J26KxqHPL9ZNlSrWVG3T-104" value="" style="edgeStyle=orthogonalEdgeStyle;rounded=0;orthogonalLoop=1;jettySize=auto;html=1;" edge="1" parent="1" source="J26KxqHPL9ZNlSrWVG3T-73" target="J26KxqHPL9ZNlSrWVG3T-91">
          <mxGeometry relative="1" as="geometry" />
        </mxCell>
        <mxCell id="J26KxqHPL9ZNlSrWVG3T-73" value="&lt;p style=&quot;text-indent:-18.0pt;mso-list:l0 level1 lfo1&quot; class=&quot;MsoListParagraph&quot;&gt;&lt;font face=&quot;Titillium Web&quot;&gt;&lt;span style=&quot;font-size: 16px;&quot;&gt;Manage requests&lt;/span&gt;&lt;/font&gt;&lt;/p&gt;" style="swimlane;whiteSpace=wrap;html=1;fillColor=#1ba1e2;fontColor=#ffffff;strokeColor=#006EAF;" vertex="1" parent="1">
          <mxGeometry x="80" y="2310" width="720" height="400" as="geometry">
            <mxRectangle x="80" y="130" width="150" height="50" as="alternateBounds" />
          </mxGeometry>
        </mxCell>
        <mxCell id="J26KxqHPL9ZNlSrWVG3T-74" value="" style="edgeStyle=orthogonalEdgeStyle;rounded=0;orthogonalLoop=1;jettySize=auto;html=1;" edge="1" parent="J26KxqHPL9ZNlSrWVG3T-73" source="J26KxqHPL9ZNlSrWVG3T-75" target="J26KxqHPL9ZNlSrWVG3T-79">
          <mxGeometry relative="1" as="geometry" />
        </mxCell>
        <mxCell id="J26KxqHPL9ZNlSrWVG3T-75" value="&lt;p style=&quot;margin-left:108.0pt;text-indent:-108.0pt;mso-text-indent-alt:-9.0pt;&lt;br/&gt;mso-list:l0 level3 lfo1&quot;&gt;&lt;span style=&quot;font-family: &amp;quot;Titillium Web&amp;quot;;&quot;&gt;Establish continuous contact with the&lt;br/&gt;applicant to ensure compliance with guidelines and deadlines.&lt;/span&gt;&lt;/p&gt;" style="rounded=1;whiteSpace=wrap;html=1;align=center;" vertex="1" parent="J26KxqHPL9ZNlSrWVG3T-73">
          <mxGeometry x="40" y="150" width="320" height="60" as="geometry" />
        </mxCell>
        <mxCell id="J26KxqHPL9ZNlSrWVG3T-76" value="&lt;b&gt;&lt;font data-font-src=&quot;https://fonts.googleapis.com/css?family=titillium+web&quot; face=&quot;titillium web&quot;&gt;Event participation (SR)&lt;/font&gt;&lt;/b&gt;" style="shape=hexagon;perimeter=hexagonPerimeter2;whiteSpace=wrap;html=1;fixedSize=1;" vertex="1" parent="J26KxqHPL9ZNlSrWVG3T-73">
          <mxGeometry x="120" y="70" width="160" height="60" as="geometry" />
        </mxCell>
        <mxCell id="J26KxqHPL9ZNlSrWVG3T-77" value="&lt;b&gt;&lt;font data-font-src=&quot;https://fonts.googleapis.com/css?family=titillium+web&quot; face=&quot;titillium web&quot;&gt;Event organization (CR)&lt;/font&gt;&lt;/b&gt;" style="shape=hexagon;perimeter=hexagonPerimeter2;whiteSpace=wrap;html=1;fixedSize=1;" vertex="1" parent="J26KxqHPL9ZNlSrWVG3T-73">
          <mxGeometry x="460" y="70" width="160" height="60" as="geometry" />
        </mxCell>
        <mxCell id="J26KxqHPL9ZNlSrWVG3T-79" value="&lt;p style=&quot;margin-left:108.0pt;text-indent:-108.0pt;mso-text-indent-alt:-9.0pt;&lt;br/&gt;mso-list:l0 level3 lfo1&quot;&gt;&lt;span style=&quot;font-family: &amp;quot;Titillium Web&amp;quot;;&quot;&gt;Create entry in the DRA tracking&lt;br/&gt;sheet.&amp;nbsp;&lt;/span&gt;&lt;/p&gt;" style="whiteSpace=wrap;html=1;rounded=1;" vertex="1" parent="J26KxqHPL9ZNlSrWVG3T-73">
          <mxGeometry x="40" y="230" width="320" height="60" as="geometry" />
        </mxCell>
        <mxCell id="J26KxqHPL9ZNlSrWVG3T-81" value="" style="edgeStyle=orthogonalEdgeStyle;rounded=0;orthogonalLoop=1;jettySize=auto;html=1;" edge="1" parent="J26KxqHPL9ZNlSrWVG3T-73" source="J26KxqHPL9ZNlSrWVG3T-82" target="J26KxqHPL9ZNlSrWVG3T-84">
          <mxGeometry relative="1" as="geometry" />
        </mxCell>
        <mxCell id="J26KxqHPL9ZNlSrWVG3T-82" value="&lt;p style=&quot;margin-left:108.0pt;text-indent:-108.0pt;mso-text-indent-alt:-9.0pt;&lt;br/&gt;mso-list:l0 level3 lfo1&quot;&gt;&lt;span style=&quot;font-family: &amp;quot;Titillium Web&amp;quot;;&quot;&gt;Create HU box folder for event&lt;/span&gt;&lt;/p&gt;" style="rounded=1;whiteSpace=wrap;html=1;align=center;" vertex="1" parent="J26KxqHPL9ZNlSrWVG3T-73">
          <mxGeometry x="400" y="150" width="280" height="60" as="geometry" />
        </mxCell>
        <mxCell id="J26KxqHPL9ZNlSrWVG3T-83" value="" style="edgeStyle=orthogonalEdgeStyle;rounded=0;orthogonalLoop=1;jettySize=auto;html=1;" edge="1" parent="J26KxqHPL9ZNlSrWVG3T-73" source="J26KxqHPL9ZNlSrWVG3T-84" target="J26KxqHPL9ZNlSrWVG3T-86">
          <mxGeometry relative="1" as="geometry" />
        </mxCell>
        <mxCell id="J26KxqHPL9ZNlSrWVG3T-84" value="&lt;p style=&quot;margin-left:108.0pt;text-indent:-108.0pt;mso-text-indent-alt:-9.0pt;&lt;br/&gt;mso-list:l0 level3 lfo1&quot;&gt;&lt;span style=&quot;font-family: &amp;quot;Titillium Web&amp;quot;;&quot;&gt;Plan for the different organizational&lt;br/&gt;activities and create a timeline.&lt;/span&gt;&lt;/p&gt;" style="whiteSpace=wrap;html=1;rounded=1;" vertex="1" parent="J26KxqHPL9ZNlSrWVG3T-73">
          <mxGeometry x="400" y="230" width="280" height="60" as="geometry" />
        </mxCell>
        <mxCell id="J26KxqHPL9ZNlSrWVG3T-86" value="&lt;p style=&quot;margin-left:108.0pt;text-indent:-108.0pt;mso-text-indent-alt:-9.0pt;&lt;br/&gt;mso-list:l0 level3 lfo1&quot;&gt;&lt;span style=&quot;font-family: &amp;quot;Titillium Web&amp;quot;;&quot;&gt;Update and discuss the event organization in the weekly Events meeting agenda.&amp;nbsp;&lt;/span&gt;&lt;/p&gt;" style="whiteSpace=wrap;html=1;rounded=1;" vertex="1" parent="J26KxqHPL9ZNlSrWVG3T-73">
          <mxGeometry x="400" y="311" width="280" height="60" as="geometry" />
        </mxCell>
        <mxCell id="J26KxqHPL9ZNlSrWVG3T-88" value="" style="endArrow=classic;html=1;rounded=0;exitX=0.5;exitY=1;exitDx=0;exitDy=0;" edge="1" parent="J26KxqHPL9ZNlSrWVG3T-73" source="J26KxqHPL9ZNlSrWVG3T-76" target="J26KxqHPL9ZNlSrWVG3T-75">
          <mxGeometry width="50" height="50" relative="1" as="geometry">
            <mxPoint x="380" y="140" as="sourcePoint" />
            <mxPoint x="430" y="90" as="targetPoint" />
          </mxGeometry>
        </mxCell>
        <mxCell id="J26KxqHPL9ZNlSrWVG3T-89" value="" style="endArrow=classic;html=1;rounded=0;exitX=0.5;exitY=1;exitDx=0;exitDy=0;entryX=0.5;entryY=0;entryDx=0;entryDy=0;" edge="1" parent="J26KxqHPL9ZNlSrWVG3T-73" source="J26KxqHPL9ZNlSrWVG3T-77" target="J26KxqHPL9ZNlSrWVG3T-82">
          <mxGeometry width="50" height="50" relative="1" as="geometry">
            <mxPoint x="380" y="140" as="sourcePoint" />
            <mxPoint x="430" y="90" as="targetPoint" />
          </mxGeometry>
        </mxCell>
        <mxCell id="J26KxqHPL9ZNlSrWVG3T-120" style="edgeStyle=orthogonalEdgeStyle;rounded=0;orthogonalLoop=1;jettySize=auto;html=1;exitX=0.5;exitY=1;exitDx=0;exitDy=0;entryX=0.5;entryY=0;entryDx=0;entryDy=0;" edge="1" parent="1" source="J26KxqHPL9ZNlSrWVG3T-91" target="J26KxqHPL9ZNlSrWVG3T-107">
          <mxGeometry relative="1" as="geometry" />
        </mxCell>
        <mxCell id="J26KxqHPL9ZNlSrWVG3T-91" value="&lt;p style=&quot;text-indent:-18.0pt;mso-list:l0 level1 lfo1&quot; class=&quot;MsoListParagraph&quot;&gt;&lt;font face=&quot;Titillium Web&quot;&gt;&lt;span style=&quot;font-size: 16px;&quot;&gt;Promotion (CR, AW)&lt;/span&gt;&lt;/font&gt;&lt;/p&gt;" style="swimlane;whiteSpace=wrap;html=1;fillColor=#1ba1e2;fontColor=#ffffff;strokeColor=#006EAF;" vertex="1" parent="1">
          <mxGeometry x="80" y="2790" width="720" height="400" as="geometry">
            <mxRectangle x="80" y="130" width="150" height="50" as="alternateBounds" />
          </mxGeometry>
        </mxCell>
        <mxCell id="J26KxqHPL9ZNlSrWVG3T-92" value="" style="edgeStyle=orthogonalEdgeStyle;rounded=0;orthogonalLoop=1;jettySize=auto;html=1;" edge="1" parent="J26KxqHPL9ZNlSrWVG3T-91" source="J26KxqHPL9ZNlSrWVG3T-93" target="J26KxqHPL9ZNlSrWVG3T-96">
          <mxGeometry relative="1" as="geometry" />
        </mxCell>
        <mxCell id="J26KxqHPL9ZNlSrWVG3T-93" value="&lt;p style=&quot;margin-left:108.0pt;text-indent:-108.0pt;mso-text-indent-alt:-9.0pt;&lt;br/&gt;mso-list:l0 level3 lfo1&quot;&gt;&lt;font face=&quot;Titillium Web&quot;&gt;Evaluate the needed level of public visibility of the event&lt;/font&gt;&lt;/p&gt;" style="rounded=1;whiteSpace=wrap;html=1;align=center;" vertex="1" parent="J26KxqHPL9ZNlSrWVG3T-91">
          <mxGeometry x="40" y="50" width="640" height="60" as="geometry" />
        </mxCell>
        <mxCell id="J26KxqHPL9ZNlSrWVG3T-106" value="" style="edgeStyle=orthogonalEdgeStyle;rounded=0;orthogonalLoop=1;jettySize=auto;html=1;" edge="1" parent="J26KxqHPL9ZNlSrWVG3T-91" source="J26KxqHPL9ZNlSrWVG3T-96" target="J26KxqHPL9ZNlSrWVG3T-105">
          <mxGeometry relative="1" as="geometry" />
        </mxCell>
        <mxCell id="J26KxqHPL9ZNlSrWVG3T-96" value="&lt;p style=&quot;margin-left:108.0pt;text-indent:-108.0pt;mso-text-indent-alt:-9.0pt;&lt;br/&gt;mso-list:l0 level3 lfo1&quot;&gt;&lt;font face=&quot;Titillium Web&quot;&gt;Create contant and graphics for promotion&lt;/font&gt;&lt;/p&gt;" style="whiteSpace=wrap;html=1;rounded=1;" vertex="1" parent="J26KxqHPL9ZNlSrWVG3T-91">
          <mxGeometry x="40" y="133" width="640" height="60" as="geometry" />
        </mxCell>
        <mxCell id="J26KxqHPL9ZNlSrWVG3T-105" value="&lt;span style=&quot;font-size: 12pt; line-height: 107%; font-family: &amp;quot;Titillium Web&amp;quot;;&quot; lang=&quot;DE&quot;&gt;Publish posts through the&lt;br/&gt;selected channel (CR, JS)&lt;/span&gt;" style="whiteSpace=wrap;html=1;rounded=1;" vertex="1" parent="J26KxqHPL9ZNlSrWVG3T-91">
          <mxGeometry x="40" y="230" width="640" height="60" as="geometry" />
        </mxCell>
        <mxCell id="J26KxqHPL9ZNlSrWVG3T-107" value="&lt;p style=&quot;text-indent:-18.0pt;mso-list:l0 level1 lfo1&quot; class=&quot;MsoListParagraph&quot;&gt;&lt;font face=&quot;Titillium Web&quot;&gt;&lt;span style=&quot;font-size: 16px;&quot;&gt;Close the request&lt;/span&gt;&lt;/font&gt;&lt;/p&gt;" style="swimlane;whiteSpace=wrap;html=1;fillColor=#1ba1e2;fontColor=#ffffff;strokeColor=#006EAF;" vertex="1" parent="1">
          <mxGeometry x="80" y="3230" width="720" height="510" as="geometry">
            <mxRectangle x="80" y="130" width="150" height="50" as="alternateBounds" />
          </mxGeometry>
        </mxCell>
        <mxCell id="J26KxqHPL9ZNlSrWVG3T-127" style="edgeStyle=orthogonalEdgeStyle;rounded=0;orthogonalLoop=1;jettySize=auto;html=1;" edge="1" parent="J26KxqHPL9ZNlSrWVG3T-107" source="J26KxqHPL9ZNlSrWVG3T-109" target="J26KxqHPL9ZNlSrWVG3T-125">
          <mxGeometry relative="1" as="geometry" />
        </mxCell>
        <mxCell id="J26KxqHPL9ZNlSrWVG3T-109" value="&lt;p style=&quot;margin-left:108.0pt;text-indent:-108.0pt;mso-text-indent-alt:-9.0pt;&lt;br/&gt;mso-list:l0 level3 lfo1&quot;&gt;&lt;font face=&quot;Titillium Web&quot;&gt;Process the reimbursement requests (SR, NG)&lt;/font&gt;&lt;/p&gt;" style="rounded=1;whiteSpace=wrap;html=1;align=center;" vertex="1" parent="J26KxqHPL9ZNlSrWVG3T-107">
          <mxGeometry x="40" y="150" width="320" height="60" as="geometry" />
        </mxCell>
        <mxCell id="J26KxqHPL9ZNlSrWVG3T-110" value="&lt;b&gt;&lt;font data-font-src=&quot;https://fonts.googleapis.com/css?family=titillium+web&quot; face=&quot;titillium web&quot;&gt;Event participation (SR)&lt;/font&gt;&lt;/b&gt;" style="shape=hexagon;perimeter=hexagonPerimeter2;whiteSpace=wrap;html=1;fixedSize=1;" vertex="1" parent="J26KxqHPL9ZNlSrWVG3T-107">
          <mxGeometry x="120" y="70" width="160" height="60" as="geometry" />
        </mxCell>
        <mxCell id="J26KxqHPL9ZNlSrWVG3T-111" value="&lt;b&gt;&lt;font data-font-src=&quot;https://fonts.googleapis.com/css?family=titillium+web&quot; face=&quot;titillium web&quot;&gt;Event organization (CR)&lt;/font&gt;&lt;/b&gt;" style="shape=hexagon;perimeter=hexagonPerimeter2;whiteSpace=wrap;html=1;fixedSize=1;" vertex="1" parent="J26KxqHPL9ZNlSrWVG3T-107">
          <mxGeometry x="460" y="70" width="160" height="60" as="geometry" />
        </mxCell>
        <mxCell id="J26KxqHPL9ZNlSrWVG3T-122" value="" style="edgeStyle=orthogonalEdgeStyle;rounded=0;orthogonalLoop=1;jettySize=auto;html=1;" edge="1" parent="J26KxqHPL9ZNlSrWVG3T-107" source="J26KxqHPL9ZNlSrWVG3T-114" target="J26KxqHPL9ZNlSrWVG3T-121">
          <mxGeometry relative="1" as="geometry" />
        </mxCell>
        <mxCell id="J26KxqHPL9ZNlSrWVG3T-114" value="&lt;p style=&quot;margin-left:108.0pt;text-indent:-108.0pt;mso-text-indent-alt:-9.0pt;&lt;br/&gt;mso-list:l0 level3 lfo1&quot;&gt;&lt;span style=&quot;font-family: &amp;quot;Titillium Web&amp;quot;;&quot;&gt;Discuss and review the event with team (lessons learned, attendance statistics, etc) (CR)&lt;/span&gt;&lt;/p&gt;" style="rounded=1;whiteSpace=wrap;html=1;align=center;" vertex="1" parent="J26KxqHPL9ZNlSrWVG3T-107">
          <mxGeometry x="400" y="150" width="280" height="60" as="geometry" />
        </mxCell>
        <mxCell id="J26KxqHPL9ZNlSrWVG3T-118" value="" style="endArrow=classic;html=1;rounded=0;exitX=0.5;exitY=1;exitDx=0;exitDy=0;" edge="1" parent="J26KxqHPL9ZNlSrWVG3T-107" source="J26KxqHPL9ZNlSrWVG3T-110" target="J26KxqHPL9ZNlSrWVG3T-109">
          <mxGeometry width="50" height="50" relative="1" as="geometry">
            <mxPoint x="380" y="140" as="sourcePoint" />
            <mxPoint x="430" y="90" as="targetPoint" />
          </mxGeometry>
        </mxCell>
        <mxCell id="J26KxqHPL9ZNlSrWVG3T-119" value="" style="endArrow=classic;html=1;rounded=0;exitX=0.5;exitY=1;exitDx=0;exitDy=0;entryX=0.5;entryY=0;entryDx=0;entryDy=0;" edge="1" parent="J26KxqHPL9ZNlSrWVG3T-107" source="J26KxqHPL9ZNlSrWVG3T-111" target="J26KxqHPL9ZNlSrWVG3T-114">
          <mxGeometry width="50" height="50" relative="1" as="geometry">
            <mxPoint x="380" y="140" as="sourcePoint" />
            <mxPoint x="430" y="90" as="targetPoint" />
          </mxGeometry>
        </mxCell>
        <mxCell id="J26KxqHPL9ZNlSrWVG3T-124" value="" style="edgeStyle=orthogonalEdgeStyle;rounded=0;orthogonalLoop=1;jettySize=auto;html=1;" edge="1" parent="J26KxqHPL9ZNlSrWVG3T-107" source="J26KxqHPL9ZNlSrWVG3T-121" target="J26KxqHPL9ZNlSrWVG3T-123">
          <mxGeometry relative="1" as="geometry" />
        </mxCell>
        <mxCell id="J26KxqHPL9ZNlSrWVG3T-121" value="Process paperwork and complete budget overview (SR, NG)" style="whiteSpace=wrap;html=1;rounded=1;" vertex="1" parent="J26KxqHPL9ZNlSrWVG3T-107">
          <mxGeometry x="400" y="230" width="280" height="60" as="geometry" />
        </mxCell>
        <mxCell id="J26KxqHPL9ZNlSrWVG3T-126" value="" style="edgeStyle=orthogonalEdgeStyle;rounded=0;orthogonalLoop=1;jettySize=auto;html=1;" edge="1" parent="J26KxqHPL9ZNlSrWVG3T-107" source="J26KxqHPL9ZNlSrWVG3T-123" target="J26KxqHPL9ZNlSrWVG3T-125">
          <mxGeometry relative="1" as="geometry" />
        </mxCell>
        <mxCell id="J26KxqHPL9ZNlSrWVG3T-123" value="Archive events folder (CR)" style="whiteSpace=wrap;html=1;rounded=1;" vertex="1" parent="J26KxqHPL9ZNlSrWVG3T-107">
          <mxGeometry x="400" y="310" width="280" height="60" as="geometry" />
        </mxCell>
        <mxCell id="J26KxqHPL9ZNlSrWVG3T-125" value="Update the events database (JS)" style="whiteSpace=wrap;html=1;rounded=1;" vertex="1" parent="J26KxqHPL9ZNlSrWVG3T-107">
          <mxGeometry x="40" y="420" width="640" height="60" as="geometry" />
        </mxCell>
      </root>
    </mxGraphModel>
  </diagram>
</mxfile>
